<svg width="154" height="33" viewBox="0 0 154 33" fill="none" xmlns="http://www.w3.org/2000/svg">
<path d="M22.9543 0.624V6.50743H14.5303V31.824H8.37943V6.50743H0V0.624H22.9543Z" fill="#3152FF"/>
<path d="M44.1818 31.824L42.3098 26.208H29.8743L28.0023 31.824H21.3612L32.2812 0.624H39.9029L50.8675 31.824H44.1818ZM31.8355 20.4583H40.3932L36.1143 7.71086L31.8355 20.4583Z" fill="#3152FF"/>
<path d="M63.8531 32.448C60.7628 32.448 58.1628 31.7646 56.0531 30.3977C53.9434 29.0011 52.4577 27.1143 51.596 24.7371L56.8554 21.6617C58.0737 24.8411 60.4657 26.4309 64.0314 26.4309C65.7548 26.4309 67.0177 26.1189 67.82 25.4949C68.6222 24.8709 69.0234 24.0834 69.0234 23.1326C69.0234 22.0331 68.5331 21.1863 67.5525 20.592C66.572 19.968 64.8188 19.2994 62.2931 18.5863C60.8965 18.1703 59.708 17.7543 58.7274 17.3383C57.7765 16.9223 56.8108 16.3726 55.8302 15.6891C54.8794 14.976 54.1514 14.0846 53.6462 13.0149C53.1411 11.9451 52.8885 10.6971 52.8885 9.27086C52.8885 6.448 53.884 4.20457 55.8748 2.54057C57.8954 0.846858 60.3171 0 63.14 0C65.6657 0 67.8794 0.624 69.7811 1.872C71.7125 3.09029 73.2131 4.79886 74.2828 6.99771L69.1125 9.984C67.8645 7.30972 65.8737 5.97257 63.14 5.97257C61.8622 5.97257 60.852 6.26972 60.1091 6.864C59.396 7.42857 59.0394 8.17143 59.0394 9.09257C59.0394 10.0731 59.4405 10.8754 60.2428 11.4994C61.0748 12.0937 62.6497 12.7474 64.9674 13.4606C65.9182 13.7577 66.6314 13.9954 67.1068 14.1737C67.612 14.3223 68.2805 14.5749 69.1125 14.9314C69.9742 15.2583 70.628 15.5703 71.0737 15.8674C71.5491 16.1646 72.084 16.5657 72.6782 17.0709C73.2725 17.576 73.7182 18.096 74.0154 18.6309C74.3422 19.1657 74.6097 19.8194 74.8177 20.592C75.0554 21.3349 75.1742 22.152 75.1742 23.0434C75.1742 25.9257 74.1194 28.2137 72.0097 29.9074C69.9297 31.6011 67.2108 32.448 63.8531 32.448Z" fill="#3152FF"/>
<path d="M103.349 31.824H96.2621L85.1192 17.2046V31.824H78.9684V0.624H85.1192V14.3966L95.8164 0.624H102.903L91.3592 15.7783L103.349 31.824Z" fill="#3152FF"/>
<path d="M112.541 25.9406H125.69V31.824H106.39V0.624H125.467V6.50743H112.541V13.1486H124.353V18.9429H112.541V25.9406Z" fill="#3152FF"/>
<path d="M147.141 31.824L140.856 20.9931H136.176V31.824H130.025V0.624H142.505C145.388 0.624 147.839 1.63429 149.86 3.65486C151.88 5.67543 152.89 8.112 152.89 10.9646C152.89 12.896 152.341 14.6937 151.241 16.3577C150.142 17.992 148.686 19.2251 146.873 20.0571L153.782 31.824H147.141ZM136.176 6.37371V15.6H142.505C143.664 15.6 144.66 15.1543 145.492 14.2629C146.324 13.3417 146.74 12.2423 146.74 10.9646C146.74 9.68686 146.324 8.60229 145.492 7.71086C144.66 6.81943 143.664 6.37371 142.505 6.37371H136.176Z" fill="#3152FF"/>
</svg>
